<?xml version="1.0" encoding="UTF-8"?>
<!DOCTYPE svg PUBLIC "-//W3C//DTD SVG 1.1//EN" "http://www.w3.org/Graphics/SVG/1.1/DTD/svg11.dtd">
<!-- Creator: CorelDRAW X8 -->
<svg xmlns="http://www.w3.org/2000/svg" xml:space="preserve" width="8.66142in" height="5.31496in" version="1.1" style="shape-rendering:geometricPrecision; text-rendering:geometricPrecision; image-rendering:optimizeQuality; fill-rule:evenodd; clip-rule:evenodd"
viewBox="0 0 8661 5315"
 xmlns:xlink="http://www.w3.org/1999/xlink">
 <defs>
  <style type="text/css">
   <![CDATA[
    .fil0 {fill:#373435}
    .fil2 {fill:#373435;fill-rule:nonzero}
    .fil1 {fill:#282829;fill-rule:nonzero}
   ]]>
  </style>
 </defs>
 <g id="Layer_x0020_1">
  <metadata id="CorelCorpID_0Corel-Layer"/>
  <g id="_1143261648">
   <path class="fil0" d="M4893 3138c26,4 47,-10 68,-24 5,50 -11,116 -14,155 -2,25 13,69 21,96 19,63 12,154 12,232 47,26 49,2 115,-15 -33,59 -93,67 -182,66 -34,0 -67,0 -99,1l0 -2c3,-69 -149,-36 -143,-129 0,-143 71,-281 103,-413 45,-185 10,-209 118,-91 -2,56 -3,112 1,124zm1106 -1300l-1 -2c-13,-47 -13,-109 -15,-153 -3,-74 -24,-100 -78,-125 -26,-12 -124,-43 -149,-45 -27,25 -45,44 -68,78 -23,35 -33,54 -67,72 -114,63 -354,62 -436,103 -126,64 -152,539 -66,684 19,33 37,50 57,89 89,183 59,95 110,175 18,27 32,71 46,91 34,76 64,127 50,227 -8,60 -43,165 -73,195l-76 64c-135,112 -93,129 -110,214 -53,-23 -51,-42 -50,-94 0,-100 21,-150 13,-244 -2,-25 -4,-15 3,-49 22,-106 -42,-110 -59,-189 -11,-50 -13,-52 -40,-88 -14,-19 -14,-19 -30,-35 -117,-115 -63,-106 -69,-190 31,15 127,70 160,70 59,111 158,55 120,-13 -8,-16 -13,-18 -29,-28 -66,-40 -12,15 -169,-104l-29 -28c7,-89 15,-168 -33,-247 -19,-30 -102,-140 -23,-135 15,1 26,2 41,2 0,-58 10,-70 19,-86 5,-8 16,-4 17,-13l-14 -44c0,-40 21,-47 -4,-69 -63,-54 -238,-80 -226,76 4,54 62,80 9,152 -61,81 -78,222 -73,321 4,73 -29,99 -29,172 0,42 0,61 -7,95 -13,64 -47,67 -65,123 -10,33 -9,45 7,70 49,0 50,-6 73,-35 13,-16 35,-47 35,-73l7 0c0,31 -26,60 -28,216 -2,96 -34,115 -55,189 -8,25 -19,74 -15,101 36,225 -39,203 -2,324 24,6 55,7 87,6l-7 1c-145,13 -109,-41 -127,-141 -7,-40 -17,-72 -19,-114 -2,-37 8,-100 -8,-127 7,-47 -8,-100 -11,-146 -10,-120 11,-151 -29,-288 -12,-41 -31,-73 -35,-119 -6,-77 -3,-62 -36,-120 -18,-33 -38,-77 -60,-98 -56,-55 -59,-172 -107,-207l-178 70c-1,-9 -3,-17 -5,-26 -33,-117 18,-68 -40,-155 -13,-20 -28,-39 -41,-61 -20,-33 -18,-41 -3,-70 22,11 27,8 58,8 2,-28 7,-29 7,-66l22 0c0,-67 -39,-82 7,-94 -3,-43 -68,-132 -187,-86 -21,9 -80,67 -50,127 16,33 29,48 16,100 -18,66 -114,162 -54,287 6,15 16,78 23,134l-170 67c-118,61 -206,57 -214,61 -10,12 -21,30 -31,51 -25,-136 36,-304 -52,-419 -12,-16 -24,-30 -34,-46 -16,-27 -15,-34 -8,-64 39,0 51,10 58,-22 6,-31 -9,-40 29,-51 -3,-35 -19,-38 -12,-76 7,-39 6,-53 -21,-72 -165,-113 -235,31 -200,113 30,68 40,66 7,151 -19,47 -49,79 -50,145 -1,57 6,150 -2,202 -17,119 -13,67 -13,190 1,44 6,86 -13,110 -37,47 -8,137 21,137 45,0 59,-57 44,-150 26,0 7,64 14,160 3,52 65,110 65,157 -167,88 -119,92 -176,160 -7,-32 -15,-63 -23,-95 -13,-53 -9,-81 -28,-131 -30,-79 -71,-155 -130,-187 -90,-49 -84,-51 -211,-107 -23,-10 -53,10 -83,34 -29,-122 61,-339 -64,-554 -22,-39 -38,-46 -26,-97 74,0 75,12 75,-62 10,-6 20,-8 24,-10 1,0 2,0 2,-2 -3,-44 -14,-67 -14,-116 0,-7 0,-5 -5,-9 -5,-3 -9,-6 -14,-10 -36,-25 -79,-55 -128,-39 -152,51 -55,162 -50,192 5,28 -57,125 -80,237 -11,54 8,78 -13,124 -31,64 -37,148 -51,218 -17,85 4,103 -35,160 -64,94 4,126 42,115 70,-20 57,-395 74,-117 9,29 -22,134 -30,175 -19,97 2,128 -83,186 -31,22 -50,60 -64,96 -17,44 -40,109 -66,151 -21,34 -168,59 -11,182 18,15 20,39 34,49 -4,0 -8,0 -11,0 -271,4 -203,4 -193,-111 13,-151 40,-160 58,-250l47 -267c-4,-39 -6,-56 -6,-97 0,-60 -11,-128 -12,-189 -3,-141 -18,-259 2,-407 8,-59 20,-126 19,-185 -1,1 -2,3 -3,4l-7 14c-3,7 -4,12 -5,20l-55 255c-21,92 -40,195 -65,286 -7,24 -19,50 -21,74 -3,29 3,51 -3,86 -10,60 -25,81 -51,125 -47,80 -101,128 -185,164 -3,-42 62,-97 82,-134 28,-53 23,-120 46,-172 20,-43 34,-22 48,-61 9,-26 17,-59 25,-86 15,-51 23,-128 35,-184 34,-160 96,-614 100,-772 2,-577 792,-1362 1401,-1184 381,112 459,14 814,-105 31,275 238,668 603,979 -303,-410 -558,-809 -445,-1107 170,-151 348,-134 615,-129 141,4 192,16 320,-31 116,-44 358,-34 472,27 44,24 70,52 106,77 89,63 125,88 187,171 66,88 113,123 159,205 12,22 19,38 30,62 11,25 29,35 35,57 12,53 -11,36 58,117 27,32 51,76 76,107 26,36 56,62 79,104 25,47 26,95 46,136 22,45 65,36 85,91 39,-6 64,-31 99,-20 -1,42 -15,12 -30,47 224,30 299,-50 428,-55 -13,30 -62,62 -91,83 -113,82 -274,99 -415,85 0,1 -66,151 -66,154 4,24 16,41 20,69 4,37 -9,47 -8,72 1,19 6,10 4,37 -5,96 1,43 -16,93 -8,25 0,47 -13,73 -18,36 -14,3 -16,54 -1,19 -10,30 -21,62 -14,41 -12,16 -11,65l-36 171 5 115c0,23 -7,50 -8,79 -3,138 18,676 -93,837 -13,-44 -25,-95 -32,-116 -31,-106 -67,-179 -80,-307 -11,-104 -30,-141 -66,-222 -13,-27 -23,-49 -29,-69 -3,-34 -5,-62 -7,-80 21,-32 92,-7 172,16 29,49 104,59 119,20 28,-51 -96,-78 -109,-83 -10,-4 -13,-9 -25,-14 -13,-6 -20,-8 -34,-13 -23,-9 -46,-21 -66,-26 14,-183 7,-182 -69,-342 -14,-49 34,-42 63,-50 1,-34 6,-59 18,-80 1,-3 9,-5 8,-7 -24,-44 -3,-59 -20,-123 -8,-35 -93,-61 -147,-31zm-2562 1470c11,32 22,59 32,75 37,64 102,128 167,162 17,52 23,87 -17,102 -1,-11 -29,-33 -55,-33 -25,-7 -11,-1 -32,-11 -109,-59 -102,-157 -95,-295zm-104 344c-9,-1 -16,-1 -22,-2 -46,-3 -169,1 -183,-7 -22,-12 -29,-47 -36,-56 -5,-25 -14,-46 -19,-70 -6,-31 -1,-46 -4,-75 -1,-21 -4,-42 -6,-61 78,-50 73,-55 155,-119 106,-107 71,-78 81,15 11,90 52,147 68,237 9,48 -33,84 -34,138zm-1024 -389c-6,39 -9,71 -8,81 -14,20 -18,118 -18,151 -1,50 38,90 18,142 -9,15 -50,18 -97,19 3,-6 -14,-27 -63,-47 -38,-23 -33,-68 -33,-111 0,-16 151,-171 187,-218 5,-6 10,-12 14,-17zm3918 167c-49,33 -107,64 -185,71 -53,5 -159,10 -214,-20 1,-12 5,-26 14,-44 24,-45 40,-87 52,-136 24,-17 47,1 95,54 71,-1 102,-113 113,-254 36,85 0,75 34,158 27,68 28,57 60,112 14,25 24,44 31,59z"/>
   <path class="fil1" d="M1835 5007c0,-28 5,-47 16,-57 10,-11 29,-16 55,-16l25 0c26,0 44,4 55,13 11,10 16,25 16,47l0 10 -24 0 0 -6c0,-16 -4,-27 -10,-33 -7,-6 -20,-9 -39,-9l-16 0c-13,0 -23,1 -28,2 -6,2 -11,4 -15,8 -4,4 -7,9 -8,14 -2,6 -3,17 -3,32l0 61c0,15 1,26 3,32 1,6 4,11 8,14 4,4 9,7 14,8 6,2 15,2 29,2l16 0c20,0 33,-3 39,-9 7,-6 10,-18 10,-35 0,-3 0,-5 0,-7 0,-1 0,-2 0,-4l24 0 0 14c0,24 -5,41 -15,50 -11,9 -29,14 -56,14l-25 0c-26,0 -45,-6 -55,-16 -11,-11 -16,-30 -16,-57l0 -72zm470 -48l-68 0 0 85 68 0c18,0 30,-2 35,-7 6,-4 8,-12 8,-23l0 -25c0,-12 -2,-19 -8,-24 -5,-4 -17,-6 -35,-6zm-91 190l0 -213 96 0c24,0 40,4 49,11 9,7 14,20 14,38l0 32c0,11 -2,20 -7,26 -4,7 -11,11 -21,12 10,3 18,7 22,13 4,7 6,16 6,30l0 51 -25 0 0 -44c0,-15 -2,-25 -7,-31 -5,-5 -14,-8 -28,-8l-76 0 0 83 -23 0zm377 0l0 -213 149 0 0 23 -126 0 0 69 122 0 0 22 -122 0 0 77 126 0 0 22 -149 0zm388 -75l93 0 -43 -115 -7 0 -43 115zm-52 75l79 -213 39 0 79 213 -24 0 -21 -54 -107 0 -20 54 -25 0zm345 -190l0 -23 159 0 0 23 -68 0 0 190 -24 0 0 -190 -67 0zm354 190l0 -213 23 0 0 213 -23 0zm221 -213l26 0 68 191 68 -191 25 0 -78 213 -31 0 -78 -213zm388 213l0 -213 150 0 0 23 -126 0 0 69 122 0 0 22 -122 0 0 77 126 0 0 22 -150 0zm676 -69l24 0 0 4c0,12 1,22 3,28 2,6 5,10 9,13 4,1 9,3 16,4 7,0 22,1 44,1 12,0 22,-1 28,-3 7,-1 12,-4 15,-7 2,-2 3,-5 4,-10 1,-5 1,-11 1,-19 0,-15 -1,-25 -4,-29 -3,-4 -10,-7 -19,-7l-66 -6c-20,-1 -33,-6 -41,-14 -7,-9 -11,-23 -11,-42 0,-13 1,-23 4,-30 2,-8 6,-14 12,-19 4,-4 10,-6 18,-8 8,-2 21,-2 41,-2l7 0c22,0 38,1 46,3 9,2 17,6 23,11 4,3 7,8 9,14 2,7 3,15 3,24 0,3 0,5 0,6 0,2 0,3 0,4l-24 0 0 -5c0,-8 -1,-14 -2,-18 0,-4 -2,-7 -4,-9 -3,-3 -8,-5 -16,-6 -7,-2 -22,-2 -43,-2 -22,0 -36,2 -41,7 -6,5 -9,15 -9,30 0,12 2,21 6,25 4,5 11,8 21,8l67 6c18,2 30,6 37,15 7,8 10,21 10,40 0,14 0,25 -2,32 -2,7 -5,13 -9,17 -5,6 -12,10 -21,13 -9,2 -25,3 -48,3l-10 0c-20,0 -34,-1 -42,-3 -8,-2 -15,-5 -20,-10 -6,-5 -10,-11 -12,-19 -3,-8 -4,-18 -4,-30l0 -10zm358 -121l0 -23 159 0 0 23 -68 0 0 190 -24 0 0 -190 -67 0zm352 -23l23 0 0 140c0,14 1,23 3,29 1,5 4,10 7,13 4,3 9,6 14,7 5,1 14,2 27,2l23 0c13,0 22,-1 27,-2 6,-1 10,-4 14,-7 3,-3 6,-8 7,-13 2,-6 3,-15 3,-29l0 -140 23 0 0 143c0,27 -5,46 -16,57 -11,10 -29,16 -57,16l-25 0c-28,0 -47,-6 -57,-16 -11,-11 -16,-30 -16,-57l0 -143zm393 213l0 -213 103 0c26,0 45,6 56,16 11,11 16,29 16,55l0 71c0,26 -6,45 -16,55 -11,11 -30,16 -56,16l-103 0zm23 -21l76 0c20,0 34,-3 41,-10 7,-7 10,-21 10,-40l0 -69c0,-20 -3,-34 -10,-41 -7,-7 -21,-11 -41,-11l-76 0 0 171zm368 21l0 -213 24 0 0 213 -24 0zm338 -193l-14 0c-14,0 -25,1 -31,2 -6,2 -12,5 -16,8 -4,4 -7,9 -9,15 -2,6 -3,17 -3,32l0 60c0,15 1,25 3,31 2,6 5,11 9,15 4,4 10,6 16,8 6,2 17,2 31,2l14 0c15,0 25,0 32,-2 6,-2 11,-4 16,-8 4,-4 7,-8 8,-14 2,-6 3,-17 3,-32l0 -61c0,-14 -1,-25 -3,-31 -1,-6 -4,-11 -9,-15 -4,-4 -9,-6 -15,-8 -7,-1 -17,-2 -32,-2zm-97 51c0,-28 6,-47 17,-57 11,-11 31,-16 60,-16l27 0c29,0 49,5 60,15 11,11 16,30 16,58l0 72c0,27 -5,46 -17,57 -11,10 -31,16 -59,16l-27 0c-29,0 -49,-6 -60,-16 -11,-11 -17,-30 -17,-57l0 -72z"/>
   <g>
    <path class="fil2" d="M8363 3976l0 -68 -25 0 0 -9 61 0 0 9 -26 0 0 68 -10 0zm46 0l0 -77 15 0 19 54c1,5 3,9 3,12 1,-3 3,-7 5,-13l18 -53 14 0 0 77 -10 0 0 -65 -23 65 -9 0 -22 -66 0 66 -10 0z"/>
    <path class="fil2" d="M671 4209l0 -2c0,-32 -5,-61 -16,-88 -11,-26 -27,-49 -47,-68 -21,-19 -46,-33 -75,-44 -29,-10 -63,-15 -100,-15l-254 0 0 622 137 0 0 -187 104 0c35,0 67,-4 98,-13 30,-10 57,-23 80,-42 23,-18 41,-41 54,-68 13,-28 19,-59 19,-95zm-138 2c0,27 -10,49 -29,67 -19,18 -45,27 -80,27l-108 0 0 -190 105 0c35,0 62,8 82,24 20,16 30,40 30,70l0 2zm713 403l0 -122 -338 0 0 -131 293 0 0 -121 -293 0 0 -127 333 0 0 -121 -468 0 0 622 473 0zm660 0l-152 -222c40,-15 72,-38 97,-70 24,-32 37,-73 37,-123l0 -2c0,-65 -21,-115 -62,-151 -41,-36 -99,-54 -173,-54l-285 0 0 622 137 0 0 -199 108 0 133 199 160 0zm-157 -408c0,27 -9,48 -27,64 -18,16 -44,24 -78,24l-139 0 0 -179 136 0c34,0 60,8 79,22 19,15 29,37 29,67l0 2zm712 224l0 -2c0,-27 -4,-51 -13,-70 -8,-20 -21,-37 -38,-51 -17,-15 -38,-27 -63,-38 -24,-10 -52,-19 -84,-28 -27,-7 -49,-13 -66,-18 -18,-6 -32,-11 -42,-17 -10,-6 -17,-13 -21,-20 -4,-8 -5,-16 -5,-26l0 -2c0,-16 6,-28 20,-39 13,-10 33,-15 60,-15 26,0 53,5 80,16 26,11 53,26 81,45l71 -103c-32,-26 -67,-45 -105,-59 -38,-13 -80,-20 -126,-20 -32,0 -61,4 -88,13 -26,9 -49,22 -68,38 -19,17 -34,37 -45,59 -10,23 -16,49 -16,77l0 2c0,31 5,57 15,77 10,21 24,39 42,52 17,14 39,26 65,36 25,9 54,18 85,25 26,7 48,13 64,19 16,6 29,12 38,18 10,6 16,12 19,19 3,7 5,15 5,24l0 1c0,19 -8,33 -24,43 -15,11 -37,16 -66,16 -35,0 -68,-7 -98,-20 -30,-14 -59,-32 -88,-56l-81 97c38,34 79,59 125,75 45,17 92,25 139,25 34,0 65,-4 93,-13 27,-9 51,-21 71,-37 20,-17 36,-37 47,-61 11,-24 17,-51 17,-82zm612 -221l0 -2c0,-32 -6,-61 -17,-88 -11,-26 -26,-49 -47,-68 -20,-19 -45,-33 -75,-44 -29,-10 -62,-15 -100,-15l-254 0 0 622 137 0 0 -187 104 0c35,0 68,-4 98,-13 31,-10 58,-23 80,-42 23,-18 41,-41 54,-68 13,-28 20,-59 20,-95zm-139 2c0,27 -9,49 -28,67 -19,18 -46,27 -80,27l-109 0 0 -190 106 0c34,0 61,8 81,24 20,16 30,40 30,70l0 2zm713 403l0 -122 -338 0 0 -131 294 0 0 -121 -294 0 0 -127 334 0 0 -121 -469 0 0 622 473 0zm670 -100l-88 -88c-24,22 -48,40 -73,53 -25,13 -55,19 -90,19 -27,0 -51,-5 -74,-15 -22,-11 -41,-25 -56,-42 -16,-18 -28,-39 -37,-63 -9,-23 -14,-49 -14,-75l0 -2c0,-27 5,-52 14,-75 9,-24 21,-44 37,-62 16,-18 35,-32 57,-42 23,-10 47,-15 73,-15 31,0 60,6 85,19 25,12 50,30 74,51l87 -100c-14,-14 -30,-27 -46,-39 -17,-12 -35,-22 -54,-30 -20,-9 -42,-15 -66,-20 -24,-5 -50,-7 -79,-7 -48,0 -92,8 -132,25 -40,17 -74,40 -102,70 -29,29 -51,63 -67,102 -16,39 -24,80 -24,125l0 2c0,44 8,86 24,125 16,39 38,73 67,102 28,28 62,51 101,68 39,16 82,25 127,25 31,0 58,-3 82,-8 24,-5 47,-12 67,-22 21,-10 40,-22 57,-35 17,-14 34,-29 50,-46zm580 -396l0 -126 -516 0 0 126 190 0 0 496 137 0 0 -496 189 0zm248 496l0 -622 -137 0 0 622 137 0zm1052 -622l-143 0 -129 421 -140 -423 -117 0 -140 423 -129 -421 -146 0 212 626 119 0 141 -407 140 407 119 0 213 -626zm244 622l0 -622 -136 0 0 622 136 0zm627 -496l0 -126 -515 0 0 126 189 0 0 496 137 0 0 -496 189 0zm576 0l0 -126 -515 0 0 126 189 0 0 496 137 0 0 -496 189 0zm657 -126l-156 0 -151 249 -149 -249 -160 0 239 377 0 245 137 0 0 -248 240 -374z"/>
   </g>
  </g>
 </g>
</svg>
